<!DOCTYPE svg PUBLIC "-//W3C//DTD SVG 1.1//EN" "http://www.w3.org/Graphics/SVG/1.1/DTD/svg11.dtd">
<!-- Uploaded to: SVG Repo, www.svgrepo.com, Transformed by: SVG Repo Mixer Tools -->
<svg fill="#000000" version="1.1" id="Capa_1" xmlns="http://www.w3.org/2000/svg" xmlns:xlink="http://www.w3.org/1999/xlink" width="800px" height="800px" viewBox="0 0 56.48 56.48" xml:space="preserve">
<g id="SVGRepo_bgCarrier" stroke-width="0"/>
<g id="SVGRepo_tracerCarrier" stroke-linecap="round" stroke-linejoin="round"/>
<g id="SVGRepo_iconCarrier"> <g> <path d="M55.026,9.939H1.454C0.65,9.939,0,10.59,0,11.393v33.695c0,0.803,0.65,1.454,1.454,1.454h53.572 c0.804,0,1.454-0.651,1.454-1.454V11.393C56.48,10.59,55.83,9.939,55.026,9.939z M24.145,20.644 c0.742-0.748,1.803-0.748,1.803-0.748h5.344l-1.393-1.387c-0.742-0.741-0.742-1.789-0.742-1.789c0-1.049,0.742-1.79,0.742-1.79 c0.741-0.742,1.79-0.742,1.79-0.742c1.048,0,1.789,0.742,1.789,0.742l5.729,5.721c0.736,0.742,0.736,1.79,0.736,1.79 c0,1.048-0.742,1.79-0.742,1.79l-5.721,5.728c-0.742,0.735-1.79,0.735-1.79,0.735c-1.048,0-1.79-0.735-1.79-0.735 c-0.742-0.742-0.742-1.79-0.742-1.79c0-1.048,0.742-1.79,0.742-1.79l1.393-1.393h-5.344c-1.061,0-1.803-0.742-1.803-0.742 c-0.749-0.748-0.749-1.803-0.749-1.803C23.396,21.387,24.145,20.644,24.145,20.644z M9.713,36.06c0,0.113-0.071,0.175-0.194,0.164 c0,0-0.44-0.062-0.817-0.062c-0.665,0-0.879,0.389-0.879,0.939v1.38c0,0.571,0.235,0.95,0.889,0.95 c0.398,0,0.817-0.062,0.817-0.062c0.112-0.011,0.184,0.041,0.184,0.153v0.623c0,0.111-0.051,0.184-0.194,0.215 c0,0-0.47,0.092-0.889,0.092c-1.236,0-1.931-0.675-1.931-1.941v-1.431c0-1.267,0.685-1.94,1.931-1.94 c0.46,0,0.889,0.092,0.889,0.092c0.132,0.021,0.194,0.092,0.194,0.203V36.06z M11.552,40.158c0,0.113-0.082,0.193-0.194,0.193 h-0.736c-0.112,0-0.194-0.08-0.194-0.193v-6.866c0-0.112,0.082-0.194,0.194-0.194h0.736c0.112,0,0.194,0.082,0.194,0.194V40.158z M13.545,40.158c0,0.113-0.082,0.193-0.195,0.193h-0.735c-0.112,0-0.194-0.08-0.194-0.193v-4.721c0-0.112,0.082-0.193,0.194-0.193 h0.735c0.113,0,0.195,0.081,0.195,0.193V40.158z M13.545,34.027c0,0.113-0.082,0.193-0.195,0.193h-0.735 c-0.112,0-0.194-0.08-0.194-0.193v-0.735c0-0.112,0.082-0.194,0.194-0.194h0.735c0.113,0,0.195,0.082,0.195,0.194V34.027z M17.428,36.06c0,0.113-0.071,0.175-0.194,0.164c0,0-0.439-0.062-0.817-0.062c-0.664,0-0.879,0.389-0.879,0.939v1.38 c0,0.571,0.235,0.95,0.889,0.95c0.398,0,0.817-0.062,0.817-0.062c0.112-0.011,0.184,0.041,0.184,0.153v0.623 c0,0.111-0.051,0.184-0.194,0.215c0,0-0.47,0.092-0.889,0.092c-1.237,0-1.932-0.675-1.932-1.941v-1.431 c0-1.267,0.685-1.94,1.932-1.94c0.459,0,0.889,0.092,0.889,0.092c0.133,0.021,0.194,0.092,0.194,0.203V36.06z M19.267,40.158 c0,0.113-0.082,0.193-0.194,0.193h-0.736c-0.112,0-0.194-0.08-0.194-0.193v-6.866c0-0.112,0.082-0.194,0.194-0.194h0.736 c0.112,0,0.194,0.082,0.194,0.194V40.158z M21.802,40.351h-0.828c-0.112,0-0.204-0.092-0.255-0.193l-1.39-2.666l1.267-2.055 c0.062-0.092,0.153-0.193,0.266-0.193h0.828c0.112,0,0.173,0.102,0.112,0.193l-1.267,2.033l1.4,2.688 C21.985,40.25,21.914,40.351,21.802,40.351z M20.982,24.68c0,0-0.99,0.989-2.389,0.989c0,0-1.399,0-2.389-0.989 c0,0-0.99-0.989-0.99-2.389c0,0,0-1.399,0.99-2.389c0,0,0.989-0.99,2.389-0.99c0,0,1.399,0,2.389,0.99c0,0,0.989,0.989,0.989,2.389 C21.971,22.292,21.971,23.691,20.982,24.68z M25.96,40.158c0,0.113-0.082,0.193-0.194,0.193h-0.684 c-0.113,0-0.194-0.08-0.194-0.193v-0.092c-0.327,0.205-0.756,0.389-1.236,0.389c-0.991,0-1.574-0.501-1.574-1.533 c0-1.052,0.644-1.572,1.778-1.572c0.348,0,0.848,0.041,0.981,0.062V37c0-0.53-0.235-0.817-0.838-0.817s-1.369,0.175-1.369,0.175 c-0.123,0.03-0.194-0.052-0.194-0.164v-0.623c0-0.112,0.071-0.185,0.194-0.214c0,0,0.664-0.215,1.522-0.215 c1.359,0,1.809,0.633,1.809,1.858L25.96,40.158L25.96,40.158z M30.713,40.158c0,0.113-0.082,0.193-0.195,0.193h-0.734 c-0.113,0-0.193-0.08-0.193-0.193V36.98c0-0.479-0.145-0.787-0.686-0.787c-0.317,0-0.665,0.145-0.95,0.297v3.668 c0,0.113-0.082,0.193-0.194,0.193h-0.736c-0.112,0-0.194-0.08-0.194-0.193v-4.721c0-0.112,0.082-0.193,0.194-0.193h0.685 c0.112,0,0.194,0.081,0.194,0.193v0.152c0.296-0.225,0.735-0.449,1.317-0.449c1.115,0,1.492,0.676,1.492,1.736V40.158 L30.713,40.158z M35.26,40.158c0,0.113-0.082,0.193-0.193,0.193h-0.686c-0.113,0-0.195-0.08-0.195-0.193v-0.061 c-0.316,0.193-0.704,0.356-1.145,0.356c-1.134,0-1.666-0.694-1.666-1.788v-1.736c0-1.095,0.531-1.789,1.666-1.789 c0.42,0,0.787,0.123,1.094,0.275v-2.125c0-0.111,0.082-0.193,0.194-0.193h0.736c0.112,0,0.194,0.082,0.194,0.193V40.158 L35.26,40.158z M40.012,38.564c0,1.113-0.604,1.787-1.871,1.787h-1.818c-0.111,0-0.193-0.08-0.193-0.193v-6.866 c0-0.112,0.082-0.194,0.193-0.194h0.736c0.111,0,0.193,0.082,0.193,0.194v2.166c0.307-0.184,0.686-0.315,1.104-0.315 c1.134,0,1.655,0.693,1.655,1.787V38.564z M44.764,40.158c0,0.113-0.082,0.193-0.194,0.193h-0.685c-0.113,0-0.194-0.08-0.194-0.193 v-0.152c-0.296,0.226-0.735,0.449-1.318,0.449c-1.114,0-1.491-0.675-1.491-1.736v-3.28c0-0.112,0.082-0.193,0.193-0.193h0.736 c0.111,0,0.193,0.081,0.193,0.193v3.179c0,0.479,0.144,0.786,0.685,0.786c0.317,0,0.665-0.144,0.95-0.296v-3.669 c0-0.112,0.082-0.193,0.194-0.193h0.736c0.112,0,0.194,0.081,0.194,0.193V40.158z M47.502,42.11 c-0.041,0.103-0.103,0.184-0.215,0.184h-0.828c-0.111,0-0.193-0.092-0.152-0.192l0.582-1.707l-1.625-4.956 c-0.029-0.103,0.031-0.193,0.153-0.193h0.808c0.113,0,0.195,0.071,0.226,0.185l1.042,3.238l1.094-3.238 c0.041-0.104,0.112-0.185,0.225-0.185h0.808c0.123,0,0.194,0.103,0.153,0.204L47.502,42.11z M23.978,38.216h0.858v1.012 c-0.296,0.154-0.644,0.277-0.96,0.277c-0.45,0-0.674-0.226-0.674-0.613C23.201,38.452,23.426,38.216,23.978,38.216z M33.277,36.132 c0.275,0,0.583,0.082,0.857,0.194v2.892c-0.275,0.133-0.582,0.235-0.857,0.235c-0.562,0-0.777-0.358-0.777-0.869V37 C32.5,36.49,32.715,36.132,33.277,36.132z M38.887,37v1.533c0,0.511-0.234,0.849-0.848,0.849h-0.787v-3.015 c0.276-0.133,0.592-0.235,0.869-0.235C38.682,36.132,38.887,36.49,38.887,37z"/> </g> </g>
</svg>