<!DOCTYPE svg PUBLIC "-//W3C//DTD SVG 1.1//EN" "http://www.w3.org/Graphics/SVG/1.1/DTD/svg11.dtd">
<!-- Uploaded to: SVG Repo, www.svgrepo.com, Transformed by: SVG Repo Mixer Tools -->
<svg version="1.1" id="_x32_" xmlns="http://www.w3.org/2000/svg" xmlns:xlink="http://www.w3.org/1999/xlink" width="800px" height="800px" viewBox="0 0 512 512" xml:space="preserve" fill="#000000">
<g id="SVGRepo_bgCarrier" stroke-width="0"/>
<g id="SVGRepo_tracerCarrier" stroke-linecap="round" stroke-linejoin="round"/>
<g id="SVGRepo_iconCarrier"> <style type="text/css">  .st0{fill:#000000;}  </style> <g> <path class="st0" d="M453.063,429.766c-2.031-7.516-4.844-14.266-8.359-20.25c-6.125-10.516-14.234-18.703-23.172-25.188 c-6.734-4.891-13.906-8.859-21.203-12.266c-7.406-3.484-14.938-6.375-22.234-9.094c-7.531-10.672-19.5-27-19.172-53.375 c0.219-16.969,1.547-21.375,1.797-70.5c4.031-3.344,7.844-7.547,11.141-12.75c4.313-6.813,7.781-15.266,10.141-25.719 c0.656-2.906,0.969-5.781,0.969-8.625c0-5.922-1.406-11.594-3.75-16.641c-1.641-3.484-3.719-6.703-6.125-9.609 c1.234-4.563,2.734-10.688,4.063-17.875c1.844-9.969,3.375-21.938,3.375-34.531c0-8.094-0.641-16.484-2.281-24.781 c-1.25-6.188-3.063-12.344-5.641-18.266c-3.828-8.859-9.438-17.203-17.219-24.078c-7.203-6.406-16.234-11.469-27.141-14.75 c-4.594-5.5-9.359-10.188-14.281-14.109c-8.281-6.609-17-11.031-25.891-13.703C279.188,0.969,270.188,0,261.203,0 c-4.734,0-9.484,0.25-14.203,0.688c-4.453,0.406-8.141,0.859-11.438,1.422c-4.922,0.828-8.984,1.922-12.938,3.297 c-3.938,1.344-7.75,2.938-12.719,4.891c-1.875,0.734-4.375,1.828-7.375,3.359c-5.219,2.625-11.953,6.531-19.172,11.906 C172.563,33.609,160.641,45,151.344,60.406c-4.641,7.703-8.625,16.406-11.422,26.156c-2.797,9.734-4.422,20.5-4.422,32.25 c0,7.344,0.641,15.094,2,23.188c0,0.578,0.031,1.109,0.047,1.656c0.063,1,0.172,2.063,0.281,3.156 c0.172,1.594,0.359,3.281,0.516,4.688c0.063,0.703,0.125,1.328,0.156,1.813c0.031,0.25,0.047,0.438,0.047,0.594l0.016,0.156v0.063 v0.938l1.984,8.813c-2.844,3.125-5.328,6.594-7.25,10.453c-2.672,5.328-4.266,11.328-4.266,17.672c0,2.844,0.313,5.719,0.984,8.625 l0,0c1.578,6.969,3.625,13.047,6.125,18.344c3.703,7.969,8.391,14.172,13.625,18.813c0.484,0.438,0.984,0.844,1.469,1.25 c0.266,49.188,1.594,53.594,1.797,70.563c0.344,26.375-11.641,42.719-19.172,53.375c-3.266,1.219-6.563,2.469-9.891,3.797 c-8.266,3.313-16.641,7.047-24.609,11.766c-5.984,3.516-11.766,7.594-17.047,12.438c-7.938,7.281-14.781,16.313-19.516,27.531 c-4.75,11.219-7.359,24.5-7.359,40.156c0,2.219,0.469,4.344,1.219,6.281c0.734,1.828,1.688,3.5,2.844,5.094 c2.172,2.953,5,5.625,8.438,8.156c6.063,4.469,14.094,8.656,24.5,12.578c15.594,5.891,36.484,11.156,63.5,14.984 C182.953,509.594,216.063,512,256,512c34.609,0,64.109-1.813,88.953-4.781c18.625-2.25,34.625-5.125,48.234-8.453 c10.188-2.484,19.031-5.203,26.594-8.078c5.688-2.156,10.672-4.406,15-6.719c3.25-1.75,6.125-3.5,8.672-5.328 c3.797-2.734,6.859-5.609,9.188-8.828c1.141-1.594,2.109-3.313,2.813-5.188c0.688-1.844,1.109-3.875,1.109-5.969 C456.563,447.938,455.344,438.359,453.063,429.766z M192.594,116.844c45.125,10.031,124-37.938,124-37.938s0.953,21.875,16,41.938 c5.938,7.906,10.813,20.25,14.469,31.969c-0.984-1.844-3.297-2.5-6.734-2.953c-7.75-1.047-19.234-1.703-32.156-1.078 c-38.453,1.875-35.609,5.375-50.703,5.375s-12.25-3.5-50.688-5.375c-12.938-0.625-24.422,0.031-32.172,1.078 c-1.328,0.172-2.469,0.391-3.453,0.672C175.922,144.688,183.031,135.453,192.594,116.844z M339.75,177.156 c0,0.219-0.156,22.25-15.156,29.781c-5.094,2.594-11.484,4-17.984,4c-6.859,0-13.141-1.531-18.141-4.5 c-5.531-3.219-9.281-8.031-11.094-14.25c-0.438-1.469-0.828-2.922-1.219-4.328c-1.188-4.297-4.375-16.172,2.375-21.438 c4.391-3.422,17.938-5.563,30.922-5.563c11.797,0,23.844,1.609,27.375,5.297C339.156,168.563,340.063,172.906,339.75,177.156z M238.797,187.859c-0.406,1.406-0.797,2.859-1.234,4.328c-1.813,6.219-5.563,11.031-11.063,14.25 c-5.031,2.969-11.297,4.5-18.156,4.5c-6.5,0-12.891-1.406-18-4c-15-7.531-15.156-29.563-15.156-29.781 c-0.297-4.25,0.625-8.594,2.922-11c3.531-3.688,15.578-5.297,27.391-5.297c12.969,0,26.531,2.141,30.906,5.563 C243.172,171.688,239.969,183.563,238.797,187.859z M238.531,437.297L179.5,361.828c3.078-1.797,6.016-3.734,8.75-5.922 c2.922-2.344,5.641-5,8-7.938l42.938,19.938l-9.156,15.25l14.188,15.031L238.531,437.297z M277.563,440.016l-6.063-41.828 l14.188-15.031l-9.203-15.344l38.828-20.391c1.078,1.375,2.219,2.703,3.438,3.938c3.844,3.953,8.281,7.219,13.047,10.078 L277.563,440.016z M351.109,225.313c-3.453,3.094-7.125,5.094-10.953,6.5l-3.688,1.359l-1.313,3.703 c-4.016,11.313-7.938,20.406-11.844,27.703c-3.922,7.297-7.828,12.766-11.875,17.047l-1.609,1.688l-0.484,2.266 c-1.828,8.328-3.625,17.578-3.625,28.484c0,3.375,0.172,6.875,0.563,10.578c0.438,4.328,1.438,8.391,2.906,12.141 c0.063,0.188,0.156,0.344,0.219,0.516L258.609,364l-56.281-26.094c1.734-4.063,2.922-8.5,3.406-13.266v-0.016 c0.391-3.688,0.547-7.188,0.547-10.563c0-10.922-1.781-20.156-3.625-28.5l-0.484-2.25l-1.609-1.688 c-4.047-4.281-7.953-9.766-11.875-17.063c-3.906-7.281-7.813-16.375-11.828-27.688l-1.297-3.703l-3.703-1.344 c-2.547-0.953-5.031-2.172-7.422-3.766c-3.609-2.438-7.016-5.719-10.156-10.656c-3.125-4.938-5.938-11.531-7.969-20.469l0,0 c-0.375-1.703-0.563-3.328-0.563-4.938c0-3.531,0.875-6.938,2.5-10.219c1.344-2.672,3.219-5.219,5.5-7.531 c3.828,5.797,7.016,10.391,8.172,11.547c2.203,2.203,3.297,0.078,3.469-4.031c1.359,9.172,5.703,24.266,19.75,31.734 c20.219,10.75,50.406,6.719,60.641-17.188c4.656-10.813,4.719-21.344,11.688-21.344s7.063,10.531,11.688,21.344 c10.25,23.906,40.438,27.938,60.656,17.188s20.359-37.328,20.359-39.219c0-0.953,0.906-1.688,2.234-1.844 c1.703,7.219,2.594,12.109,2.594,12.109s1.938-3.672,4.828-8.609c1.734,2.031,3.172,4.219,4.234,6.5 c1.422,3.047,2.188,6.219,2.188,9.563c0,1.594-0.188,3.234-0.563,4.938c-1.344,5.953-3.047,10.875-4.938,14.953 C357.875,218,354.578,222.219,351.109,225.313z"/> </g> </g>
</svg>